<?xml version="1.0" standalone="no"?>
<!DOCTYPE svg PUBLIC "-//W3C//DTD SVG 1.1//EN" "http://www.w3.org/Graphics/SVG/1.1/DTD/svg11.dtd" >
<svg xmlns="http://www.w3.org/2000/svg" xmlns:xlink="http://www.w3.org/1999/xlink" version="1.1">
<metadata></metadata>
<defs>
<font id="chromaticablack" horiz-adv-x="980" >
<font-face units-per-em="2048" ascent="1638" descent="-410" />
<missing-glyph horiz-adv-x="675" />
<glyph horiz-adv-x="0" />
<glyph horiz-adv-x="682" />
<glyph unicode=" "  horiz-adv-x="675" />
<glyph unicode="&#x09;" horiz-adv-x="675" />
<glyph unicode="&#xa0;" horiz-adv-x="675" />
<glyph unicode="!" horiz-adv-x="782" d="M172 190q0 89 61.5 149t153.5 60q91 0 152 -60t61 -149q0 -90 -61 -150t-152 -60q-92 0 -153.5 59.5t-61.5 150.5zM244 549v885h291v-885h-291z" />
<glyph unicode="&#x22;" horiz-adv-x="1126" d="M199 1434h299l-27 -660h-246zM629 1434h299l-27 -660h-246z" />
<glyph unicode="#" horiz-adv-x="1769" d="M152 309l10 266h303l8 283h-299l10 266h299l11 310h270l-10 -310h288l11 310h272l-10 -310h303l-10 -266h-303l-9 -283h299l-10 -266h-299l-10 -309h-272l10 309h-289l-10 -309h-271l11 309h-303zM735 575h289l8 283h-289z" />
<glyph unicode="$" horiz-adv-x="1179" d="M59 246l213 203q89 -95 167 -140t159 -45t141 39.5t60 104.5q0 50 -36 85.5t-112 71.5l-245 119q-265 127 -265 365q0 145 87.5 250.5t238.5 140.5l-8 260h286l-8 -260q195 -41 334 -180l-184 -209q-69 63 -143.5 94t-141.5 31q-70 0 -115 -32t-45 -87q0 -38 32.5 -69 t109.5 -68l250 -121q264 -128 264 -385q0 -161 -99 -273.5t-262 -146.5l8 -260h-286l8 260q-225 46 -408 252z" />
<glyph unicode="%" horiz-adv-x="1894" d="M74 1083q0 158 108 264.5t269 106.5q162 0 270 -106t108 -265q0 -158 -107.5 -263t-270.5 -105q-161 0 -269 105t-108 263zM303 0l977 1434h311l-979 -1434h-309zM326 1083q0 -55 34.5 -87.5t90.5 -32.5q57 0 89.5 32t32.5 88q0 57 -32.5 90t-89.5 33q-56 0 -90.5 -33.5 t-34.5 -89.5zM1067 348q0 159 107.5 265t269.5 106t269.5 -106t107.5 -265q0 -158 -107 -263t-270 -105t-270 105t-107 263zM1321 348q0 -56 33 -88.5t90 -32.5t90 32.5t33 88.5q0 57 -33 90t-90 33t-90 -33t-33 -90z" />
<glyph unicode="&#x26;" horiz-adv-x="1484" d="M88 385q0 115 64 210.5t202 184.5q-135 166 -135 316q0 154 113.5 256t283.5 102q168 0 280 -101t112 -253q0 -203 -228 -340l-32 -19l172 -202l321 317l180 -197l-327 -323l288 -336h-356l-125 145q-182 -165 -383 -165q-184 0 -307 116.5t-123 288.5zM377 414 q0 -66 45 -110t115 -44q92 0 190 88l-215 250q-135 -81 -135 -184zM498 1100q0 -66 77 -158l17 -18l43 26q102 61 102 144q0 53 -33.5 85.5t-87.5 32.5q-52 0 -85 -31t-33 -81z" />
<glyph unicode="'" horiz-adv-x="696" d="M199 1434h299l-27 -660h-246z" />
<glyph unicode="(" horiz-adv-x="972" d="M94 614q0 311 191.5 559.5t519.5 364.5l82 -272q-227 -82 -360.5 -258t-133.5 -394t133.5 -393.5t360.5 -257.5l-82 -272q-328 116 -519.5 364t-191.5 559z" />
<glyph unicode=")" horiz-adv-x="972" d="M86 -37q227 82 360.5 257.5t133.5 393.5t-133.5 394t-360.5 258l82 272q328 -116 519.5 -364.5t191.5 -559.5t-191.5 -559t-519.5 -364z" />
<glyph unicode="*" horiz-adv-x="1280" d="M117 948l90 277l305 -119l-18 328h290l-18 -328l305 119l90 -277l-317 -82l209 -256l-236 -170l-178 277l-178 -275l-236 170l207 252z" />
<glyph unicode="+" horiz-adv-x="1206" d="M119 557v283h348v348h283v-348h337v-283h-337v-338h-283v338h-348z" />
<glyph unicode="," horiz-adv-x="735" d="M156 195q0 85 61.5 144.5t151.5 59.5q92 0 156.5 -65t64.5 -189q0 -109 -61 -219.5t-216 -265.5l-153 123q122 125 172 219q-66 -5 -121 53.5t-55 139.5z" />
<glyph unicode="-" d="M119 557v283h743v-283h-743z" />
<glyph unicode="." horiz-adv-x="724" d="M147 190q0 89 61.5 149t153.5 60q91 0 152 -60t61 -149q0 -90 -61 -150t-152 -60q-92 0 -153.5 59.5t-61.5 150.5z" />
<glyph unicode="/" horiz-adv-x="958" d="M20 0l611 1434h307l-610 -1434h-308z" />
<glyph unicode="0" horiz-adv-x="1382" d="M117 717q0 340 155.5 538.5t421.5 198.5q263 0 417.5 -199t154.5 -538t-154.5 -538t-417.5 -199q-266 0 -421.5 198.5t-155.5 538.5zM414 717q0 -206 75.5 -326.5t204.5 -120.5q126 0 200.5 121t74.5 326t-74.5 325.5t-200.5 120.5q-129 0 -204.5 -120.5t-75.5 -325.5z " />
<glyph unicode="1" horiz-adv-x="854" d="M76 1147v287h575v-1434h-291v1147h-284z" />
<glyph unicode="2" horiz-adv-x="1226" d="M92 0l543 707q48 63 71 97t42.5 82.5t19.5 94.5q0 85 -50 135.5t-130 50.5q-90 0 -143 -63t-58 -172l-295 22q0 223 137 361.5t359 138.5q214 0 349.5 -125.5t135.5 -318.5q0 -113 -52.5 -217t-154.5 -232l-217 -274h451v-287h-1008z" />
<glyph unicode="3" horiz-adv-x="1202" d="M94 442l291 21q5 -89 62 -145t145 -56q84 0 136 49.5t52 130.5t-56.5 122.5t-160.5 41.5h-37v279h37q91 0 140 35t49 102t-44 108t-114 41q-76 0 -125.5 -47.5t-54.5 -124.5l-291 21q0 186 134.5 310t336.5 124q196 0 326.5 -115t130.5 -288q0 -194 -162 -303 q92 -55 141 -142t49 -194q0 -186 -138 -309t-345 -123q-215 0 -358.5 132t-143.5 330z" />
<glyph unicode="4" horiz-adv-x="1409" d="M104 481l142 953h291l-113 -666h268v420h291v-420h350v-287h-350v-481h-291v481h-588z" />
<glyph unicode="5" horiz-adv-x="1265" d="M121 440l293 21q3 -89 63 -144t154 -55q97 0 158 56t61 145q0 90 -63.5 145.5t-163.5 55.5q-125 0 -211 -86l-234 90l53 766h842v-283h-596l-22 -242q84 37 194 37q215 0 359.5 -138t144.5 -343q0 -207 -150 -346t-374 -139q-218 0 -363 131t-145 329z" />
<glyph unicode="6" horiz-adv-x="1210" d="M88 465q0 90 38 196.5t136 270.5l330 551l258 -121l-248 -404q24 3 53 3q89 0 174 -36.5t151 -98t106 -150.5t40 -187q0 -218 -150 -363.5t-376 -145.5q-144 0 -261 62.5t-184 174t-67 248.5zM383 483q0 -92 63.5 -153.5t157.5 -61.5q97 0 161 61.5t64 153.5 q0 93 -65 154t-162 61q-94 0 -156.5 -61t-62.5 -154z" />
<glyph unicode="7" horiz-adv-x="1189" d="M76 1147v287h1046l-469 -1434h-305l375 1147h-647z" />
<glyph unicode="8" horiz-adv-x="1255" d="M121 412q0 105 51.5 187t146.5 134q-86 50 -133 128t-47 175q0 174 140 296t350 122t347.5 -122t137.5 -296q0 -97 -47 -175t-133 -128q94 -52 146.5 -134.5t52.5 -186.5q0 -181 -145.5 -306.5t-360.5 -125.5t-360.5 125.5t-145.5 306.5zM414 426q0 -76 60.5 -126 t152.5 -50t152.5 50t60.5 126t-60.5 126t-152.5 50t-152.5 -50t-60.5 -126zM432 1022q0 -69 55.5 -115.5t139.5 -46.5t139 46.5t55 115.5t-55 115.5t-139 46.5t-139.5 -46.5t-55.5 -115.5z" />
<glyph unicode="9" horiz-adv-x="1212" d="M84 944q0 218 150 364t376 146q144 0 261 -62.5t184 -174t67 -248.5q0 -90 -38 -196.5t-136 -270.5l-330 -551l-258 121l248 403q-16 -2 -53 -2q-119 0 -227 60.5t-176 170t-68 240.5zM381 950q0 -93 65 -154t162 -61q94 0 156.5 61t62.5 154q0 92 -63.5 153.5 t-157.5 61.5q-97 0 -161 -61.5t-64 -153.5z" />
<glyph unicode=":" horiz-adv-x="772" d="M172 190q0 89 61.5 149t153.5 60q91 0 152 -60t61 -149q0 -90 -61 -150t-152 -60q-92 0 -153.5 59.5t-61.5 150.5zM172 805q0 89 61.5 149t153.5 60q91 0 152 -60t61 -149q0 -91 -61 -151t-152 -60q-92 0 -153.5 60t-61.5 151z" />
<glyph unicode=";" horiz-adv-x="776" d="M166 195q0 85 61.5 144.5t151.5 59.5q92 0 156.5 -65t64.5 -189q0 -109 -61 -220t-215 -265l-154 123q122 125 172 219q-66 -5 -121 53.5t-55 139.5zM188 805q0 89 61.5 149t153.5 60q91 0 152 -60t61 -149q0 -91 -61 -151t-152 -60q-92 0 -153.5 60t-61.5 151z" />
<glyph unicode="&#x3c;" horiz-adv-x="1228" d="M90 547v305l969 399v-346l-584 -205l584 -206v-347z" />
<glyph unicode="=" horiz-adv-x="1206" d="M119 311v283h968v-283h-968zM119 803v282h968v-282h-968z" />
<glyph unicode="&#x3e;" horiz-adv-x="1228" d="M170 147v347l584 206l-584 205v346l969 -399v-305z" />
<glyph unicode="?" horiz-adv-x="1038" d="M92 1333q178 121 381 121q195 0 325 -108.5t130 -272.5q0 -120 -73 -211t-204 -139l-2 -174h-295v340q123 5 197 48t74 110q0 53 -46 83.5t-122 30.5q-111 0 -238 -80zM285 190q0 89 61.5 149t153.5 60q91 0 152 -60t61 -149q0 -90 -61 -150t-152 -60q-92 0 -153.5 59.5 t-61.5 150.5z" />
<glyph unicode="@" horiz-adv-x="1804" d="M80 580q0 171 64.5 322t176 258.5t269 170t336.5 62.5q223 0 405 -91.5t286.5 -253.5t104.5 -360q0 -197 -102 -316.5t-264 -119.5q-134 0 -226 82q-41 -71 -114 -109.5t-162 -38.5q-155 0 -254.5 107t-99.5 266q0 160 100 267.5t244 107.5q108 0 178 -64v52h260v-326 q0 -50 20.5 -78.5t57.5 -28.5q53 0 80.5 54t27.5 135q0 135 -71 244.5t-195 171t-276 61.5q-167 0 -302.5 -75t-212.5 -206.5t-77 -293.5q0 -249 160 -410.5t415 -161.5q253 0 490 150l104 -213q-120 -86 -274 -131t-311 -45q-183 0 -339.5 61.5t-266 169t-171 257.5 t-61.5 323zM756 559q0 -57 39 -94t98 -37q77 0 141 61q-12 43 -12 82v70q-20 23 -54 37t-69 14q-61 0 -102 -38t-41 -95z" />
<glyph unicode="A" horiz-adv-x="1593" d="M41 0l616 1446h277l618 -1446h-315l-145 362h-594l-146 -362h-311zM608 641h373l-186 467z" />
<glyph unicode="B" horiz-adv-x="1329" d="M184 0v1434h543q212 0 337.5 -104t125.5 -281q0 -200 -158 -304q95 -50 146 -135.5t51 -201.5q0 -187 -128.5 -297.5t-346.5 -110.5h-570zM471 272h285q188 0 188 164q0 79 -48 120.5t-140 41.5h-285v-326zM471 868h258q174 0 174 146q0 147 -174 147h-258v-293z" />
<glyph unicode="C" horiz-adv-x="1507" d="M80 715q0 155 59 292.5t160.5 235t242.5 154.5t298 57q175 0 325.5 -69t253.5 -191l-215 -215q-62 84 -155 131t-209 47q-195 0 -326 -126t-131 -316q0 -188 129.5 -313.5t325.5 -125.5q128 0 231 56.5t166 150.5l229 -200q-107 -139 -269.5 -221t-358.5 -82 q-211 0 -384.5 96.5t-272.5 265t-99 373.5z" />
<glyph unicode="D" horiz-adv-x="1507" d="M184 0v1434h525q202 0 366 -93t257 -257.5t93 -366.5t-93 -366.5t-257 -257.5t-366 -93h-525zM475 285h215q203 0 324 117t121 315t-121 315t-324 117h-215v-864z" />
<glyph unicode="E" horiz-adv-x="1202" d="M184 0v1434h863v-285h-572v-258h557v-285h-557v-321h572v-285h-863z" />
<glyph unicode="F" horiz-adv-x="1148" d="M184 0v1434h863v-285h-572v-309h551v-285h-551v-555h-291z" />
<glyph unicode="G" horiz-adv-x="1570" d="M80 715q0 155 59 292.5t160.5 235t242.5 154.5t298 57q175 0 325.5 -69t253.5 -191l-215 -215q-62 84 -155 131t-209 47q-195 0 -326 -126t-131 -316q0 -188 129.5 -313.5t325.5 -125.5q197 0 336 125v185h-297v286h587v-610q-107 -130 -269.5 -206t-358.5 -76 q-211 0 -384.5 96.5t-272.5 265t-99 373.5z" />
<glyph unicode="H" horiz-adv-x="1622" d="M184 0v1434h291v-541h672v541h291v-1434h-291v606h-672v-606h-291z" />
<glyph unicode="I" horiz-adv-x="659" d="M184 0v1434h291v-1434h-291z" />
<glyph unicode="J" horiz-adv-x="1253" d="M45 500l291 20q6 -114 75 -182t173 -68q102 0 164.5 62t62.5 166v936h291v-936q0 -230 -144.5 -374t-373.5 -144q-233 0 -383 144t-156 376z" />
<glyph unicode="K" horiz-adv-x="1429" d="M184 0v1434h293v-572l479 572h392l-529 -572l563 -862h-346l-420 643l-141 -151v-492h-291z" />
<glyph unicode="L" horiz-adv-x="1189" d="M184 0v1434h291v-1149h660v-285h-951z" />
<glyph unicode="M" horiz-adv-x="1873" d="M184 0v1434h385l369 -965l367 965h385v-1434h-291v1020l-330 -897h-264l-330 893v-1016h-291z" />
<glyph unicode="N" horiz-adv-x="1677" d="M184 0v1434h228l792 -914l-2 914h291v-1434h-221l-797 918v-918h-291z" />
<glyph unicode="O" horiz-adv-x="1669" d="M80 717q0 154 59.5 291t161 234.5t242.5 154.5t299 57q208 0 379 -97t268.5 -266t97.5 -374q0 -154 -58 -290.5t-158 -234.5t-240 -155t-297 -57q-210 0 -383 96.5t-272 265.5t-99 375zM383 717q0 -189 129 -315t322 -126t321.5 126t128.5 315t-126 314.5t-316 125.5 q-197 0 -328 -125.5t-131 -314.5z" />
<glyph unicode="P" horiz-adv-x="1318" d="M184 0v1434h539q239 0 384.5 -135.5t145.5 -356.5q0 -222 -145.5 -357.5t-384.5 -135.5h-248v-449h-291zM475 739h238q109 0 173 54.5t64 148.5q0 93 -64 147t-173 54h-238v-404z" />
<glyph unicode="Q" horiz-adv-x="1669" d="M80 717q0 154 59.5 291t161 234.5t242.5 154.5t299 57q208 0 379 -97t268.5 -266t97.5 -374q0 -242 -135.5 -430t-357.5 -264l59 -347l-285 -45l-61 349q-204 6 -370.5 103.5t-261.5 264.5t-95 369zM383 717q0 -189 129 -315t322 -126t321.5 126t128.5 315t-126 314.5 t-316 125.5q-197 0 -328 -125.5t-131 -314.5z" />
<glyph unicode="R" horiz-adv-x="1372" d="M184 0v1434h539q239 0 384.5 -132.5t145.5 -349.5q0 -151 -74.5 -264.5t-207.5 -169.5l321 -518h-344l-293 471h-180v-471h-291zM475 750h242q109 0 173 54.5t64 147.5t-64 147t-173 54h-242v-403z" />
<glyph unicode="S" horiz-adv-x="1167" d="M51 246l213 203q89 -95 167 -140t159 -45t141 39.5t60 104.5q0 50 -36 85.5t-112 71.5l-246 119q-264 126 -264 365q0 176 126.5 290.5t332.5 114.5q135 0 257 -51t214 -143l-184 -209q-69 63 -143.5 94t-141.5 31q-70 0 -115 -32t-45 -87q0 -38 32 -69t109 -68l250 -121 q265 -128 265 -385q0 -195 -141 -314.5t-357 -119.5q-304 0 -541 266z" />
<glyph unicode="T" horiz-adv-x="1261" d="M55 1149v285h1151v-285h-430v-1149h-291v1149h-430z" />
<glyph unicode="U" horiz-adv-x="1527" d="M145 569v865h291v-869q0 -138 87.5 -216.5t240.5 -78.5t240.5 78.5t87.5 216.5v869h290v-865q0 -262 -171.5 -425.5t-446.5 -163.5t-447 163.5t-172 425.5z" />
<glyph unicode="V" horiz-adv-x="1548" d="M41 1434h328l409 -1045l410 1045h319l-585 -1434h-289z" />
<glyph unicode="W" horiz-adv-x="2000" d="M51 1434h307l246 -893l279 841h235l283 -845l246 897h303l-437 -1434h-188l-324 926l-321 -926h-191z" />
<glyph unicode="X" horiz-adv-x="1470" d="M55 0l514 723l-503 711h356l313 -465l316 465h354l-504 -711l514 -723h-356l-322 475l-325 -475h-357z" />
<glyph unicode="Y" horiz-adv-x="1402" d="M31 1434h354l315 -488l318 488h354l-526 -779v-655h-291v659z" />
<glyph unicode="Z" horiz-adv-x="1261" d="M72 0l626 1149h-577v285h1063l-629 -1149h596v-285h-1079z" />
<glyph unicode="[" horiz-adv-x="940" d="M184 -281v1790h645v-280h-358v-1229h358v-281h-645z" />
<glyph unicode="\" horiz-adv-x="958" d="M20 1434h308l610 -1434h-307z" />
<glyph unicode="]" horiz-adv-x="940" d="M111 0h358v1229h-358v280h645v-1790h-645v281z" />
<glyph unicode="_" horiz-adv-x="1390" d="M197 -82h997v-283h-997v283z" />
<glyph unicode="a" horiz-adv-x="1339" d="M70 541q0 239 151 398t377 159q187 0 297 -123v102h287v-1077h-287v104q-110 -124 -299 -124q-224 0 -375 161t-151 400zM360 539q0 -119 81 -198t202 -79q78 0 146.5 34.5t105.5 92.5v303q-37 56 -105.5 89.5t-144.5 33.5q-122 0 -203.5 -79t-81.5 -197z" />
<glyph unicode="b" horiz-adv-x="1357" d="M176 0v1536h287v-561q110 123 297 123q226 0 377 -159t151 -398t-151 -400t-375 -161q-189 0 -299 124v-104h-287zM463 389q37 -58 105.5 -92.5t146.5 -34.5q121 0 201.5 79t80.5 198q0 118 -81 197t-203 79q-76 0 -144.5 -33.5t-105.5 -89.5v-303z" />
<glyph unicode="c" horiz-adv-x="1161" d="M66 535q0 156 77.5 286t209 203.5t286.5 73.5q134 0 254 -56t197 -153l-213 -209q-37 58 -97.5 90.5t-134.5 32.5q-119 0 -198.5 -75.5t-79.5 -190.5q0 -114 78.5 -188.5t197.5 -74.5q83 0 150.5 38t107.5 106l227 -197q-84 -111 -215.5 -176t-277.5 -65q-156 0 -287 73 t-206.5 200.5t-75.5 281.5z" />
<glyph unicode="d" horiz-adv-x="1357" d="M70 541q0 239 151 398t377 159q187 0 297 -123v561h287v-1536h-287v104q-110 -124 -299 -124q-224 0 -375 161t-151 400zM360 539q0 -119 81 -198t202 -79q78 0 146.5 34.5t105.5 92.5v303q-37 56 -105.5 89.5t-144.5 33.5q-122 0 -203.5 -79t-81.5 -197z" />
<glyph unicode="e" horiz-adv-x="1220" d="M66 543q0 117 43 220t117 176.5t176 116t216 42.5q229 0 380 -157.5t151 -393.5l-2 -80h-801q25 -95 106.5 -149t198.5 -54q74 0 141.5 28t151.5 101l182 -213q-105 -103 -216 -151.5t-244 -48.5q-169 0 -306 72t-215.5 201.5t-78.5 289.5zM377 700h467 q-33 67 -91.5 104.5t-136.5 37.5q-77 0 -140.5 -38t-98.5 -104z" />
<glyph unicode="f" horiz-adv-x="845" d="M57 795v282h191v51q0 204 106 316t301 112q76 0 148 -16l-49 -276q-42 10 -76 10q-69 0 -106 -40t-37 -112v-45h253v-282h-253v-795h-287v795h-191z" />
<glyph unicode="g" horiz-adv-x="1386" d="M104 561q0 152 68.5 274.5t191 192.5t273.5 70q180 0 289 -97v76h286v-1112q0 -230 -154 -374t-394 -144q-154 0 -280.5 62.5t-200.5 176.5t-77 259l287 20q5 -105 81 -171t194 -66q113 0 185.5 63.5t72.5 173.5v154q-110 -99 -293 -99q-149 0 -270.5 71t-190 194.5 t-68.5 275.5zM395 559q0 -109 81 -182.5t202 -73.5q77 0 144 30.5t104 82.5v291q-37 49 -104 78.5t-142 29.5q-121 0 -203 -73.5t-82 -182.5z" />
<glyph unicode="h" horiz-adv-x="1312" d="M176 0v1536h287v-573q50 69 135.5 103t185.5 34q191 0 297.5 -125t106.5 -352v-623h-287v608q0 100 -51 154.5t-143 54.5q-74 0 -140.5 -31.5t-103.5 -83.5v-702h-287z" />
<glyph unicode="i" horiz-adv-x="667" d="M117 1378q0 89 61.5 149t153.5 60q91 0 152 -60t61 -149q0 -91 -61 -151t-152 -60q-92 0 -153.5 60t-61.5 151zM190 0v1077h287v-1077h-287z" />
<glyph unicode="j" horiz-adv-x="735" d="M-12 -375l49 277q46 -11 76 -11q69 0 106 40t37 112v1034h287v-1040q0 -204 -106.5 -316t-301.5 -112q-75 0 -147 16zM180 1378q0 89 61.5 149t153.5 60q91 0 152 -60t61 -149q0 -91 -61 -151t-152 -60q-92 0 -153.5 60t-61.5 151z" />
<glyph unicode="k" horiz-adv-x="1323" d="M176 0v1536h287v-864l409 405h385l-426 -405l453 -672h-346l-315 471l-160 -152v-319h-287z" />
<glyph unicode="l" horiz-adv-x="641" d="M176 0v1536h289v-1536h-289z" />
<glyph unicode="m" horiz-adv-x="1937" d="M158 0v1077h286v-114q44 62 129 99.5t181 37.5q181 0 282 -135q55 63 143.5 99t196.5 36q200 0 318 -126t118 -351v-623h-286v608q0 100 -45.5 154.5t-130.5 54.5q-68 0 -130 -32.5t-96 -84.5q4 -50 4 -77v-623h-286v608q0 100 -45.5 154.5t-130.5 54.5q-67 0 -128 -30 t-94 -82v-705h-286z" />
<glyph unicode="n" horiz-adv-x="1294" d="M158 0v1077h286v-114q50 69 136 103t186 34q191 0 297 -125t106 -352v-623h-286v608q0 100 -51.5 154.5t-143.5 54.5q-74 0 -140.5 -31.5t-103.5 -83.5v-702h-286z" />
<glyph unicode="o" horiz-adv-x="1282" d="M66 539q0 157 74.5 285t206 201t294.5 73q247 0 411.5 -160t164.5 -399t-164.5 -399t-411.5 -160q-163 0 -294.5 73t-206 201t-74.5 285zM356 539q0 -118 81.5 -197.5t203.5 -79.5t203.5 79.5t81.5 197.5t-81.5 197t-203.5 79t-203.5 -79t-81.5 -197z" />
<glyph unicode="p" horiz-adv-x="1357" d="M176 -532v1609h287v-102q110 123 297 123q226 0 377 -159t151 -398t-151 -400t-375 -161q-189 0 -299 124v-636h-287zM463 389q37 -58 105.5 -92.5t146.5 -34.5q121 0 201.5 79t80.5 198q0 118 -81 197t-203 79q-76 0 -144.5 -33.5t-105.5 -89.5v-303z" />
<glyph unicode="q" horiz-adv-x="1357" d="M70 541q0 239 151 398t377 159q187 0 297 -123v102h287v-1609h-287v636q-110 -124 -299 -124q-224 0 -375 161t-151 400zM360 539q0 -119 81 -198t202 -79q78 0 146.5 34.5t105.5 92.5v303q-37 56 -105.5 89.5t-144.5 33.5q-122 0 -203.5 -79t-81.5 -197z" />
<glyph unicode="r" horiz-adv-x="907" d="M158 0v1077h286v-141q68 80 178.5 122t235.5 42l2 -289q-103 0 -234 -46t-182 -112v-653h-286z" />
<glyph unicode="s" horiz-adv-x="991" d="M45 172l186 209q142 -131 291 -131q52 0 80.5 16.5t28.5 46.5q0 51 -101 93l-200 81q-215 86 -215 281q0 143 102.5 236.5t280.5 93.5q116 0 222.5 -41.5t180.5 -114.5l-170 -197q-112 93 -227 93q-46 0 -72 -15.5t-26 -40.5t23.5 -44.5t76.5 -39.5l188 -73 q228 -88 228 -299q0 -160 -117 -253t-301 -93q-249 0 -459 192z" />
<glyph unicode="t" horiz-adv-x="1081" d="M57 795v282h183v357h286v-357h430v-282h-430v-402q0 -64 37 -97.5t99 -33.5q50 0 92 21.5t98 70.5l174 -215q-80 -80 -166 -119.5t-198 -39.5q-193 0 -307.5 106t-114.5 285v424h-183z" />
<glyph unicode="u" horiz-adv-x="1294" d="M125 455v622h287v-608q0 -100 51 -154.5t143 -54.5q74 0 140.5 31.5t103.5 83.5v702h287v-1077h-287v115q-50 -69 -136.5 -103.5t-185.5 -34.5q-191 0 -297 125.5t-106 352.5z" />
<glyph unicode="v" horiz-adv-x="1302" d="M29 1077h319l303 -739l303 739h320l-477 -1077h-291z" />
<glyph unicode="w" horiz-adv-x="1794" d="M43 1077h307l189 -700l233 680h252l231 -680l189 700h307l-336 -1077h-260l-258 682l-258 -682h-260z" />
<glyph unicode="x" horiz-adv-x="1347" d="M37 0l461 551l-432 526h360l246 -309l239 309h371l-442 -522l471 -555h-371l-270 342l-271 -342h-362z" />
<glyph unicode="y" horiz-adv-x="1214" d="M27 1077h321l258 -565l271 565h311l-770 -1609h-312l347 720z" />
<glyph unicode="z" horiz-adv-x="1118" d="M72 0l483 799l-446 -2v280h927l-481 -796h469v-281h-952z" />
<glyph unicode="{" horiz-adv-x="983" d="M104 442v346q98 8 142.5 44t23.5 100l-32 100q-35 105 -21.5 192.5t63.5 150.5t136.5 98.5t197.5 35.5h256v-286h-237q-72 0 -103.5 -47t-5.5 -117l37 -103q41 -116 -8.5 -203.5t-161.5 -93.5v-90q115 -6 165.5 -96.5t4.5 -206.5l-37 -94q-27 -71 4.5 -118.5t104.5 -47.5 h237v-287h-256q-111 0 -197.5 35.5t-136 99t-63 151t20.5 192.5l30 96q21 65 -23 101.5t-141 47.5z" />
<glyph unicode="|" horiz-adv-x="655" d="M184 -410v1844h287v-1844h-287z" />
<glyph unicode="}" horiz-adv-x="983" d="M113 6h237q73 0 104.5 47.5t4.5 118.5l-37 94q-46 116 4.5 206.5t165.5 96.5v90q-112 6 -161.5 93.5t-8.5 203.5l37 103q26 70 -5.5 117t-103.5 47h-237v286h256q111 0 197.5 -35.5t136.5 -98.5t63.5 -150.5t-21.5 -192.5l-32 -100q-21 -64 23.5 -100t142.5 -44v-346 q-97 -11 -141 -47.5t-23 -101.5l30 -96q34 -105 20.5 -192.5t-63 -151t-136 -99t-197.5 -35.5h-256v287z" />
<glyph unicode="&#xa2;" horiz-adv-x="1206" d="M84 535q0 196 118.5 345t301.5 197l-8 266h286l-8 -256q209 -42 334 -198l-213 -209q-37 59 -97.5 91t-133.5 32q-119 0 -199 -75.5t-80 -190.5q0 -114 79 -188.5t198 -74.5q83 0 150.5 38t107.5 106l227 -197q-66 -88 -163.5 -147.5t-209.5 -81.5l8 -258h-286l8 264 q-185 46 -302.5 194t-117.5 343z" />
<glyph unicode="&#xa3;" horiz-adv-x="1388" d="M88 522v242h168l12 203q14 220 146.5 353.5t349.5 133.5q215 0 352.5 -130t143.5 -339l-287 -18q-6 89 -65 144.5t-150 55.5q-88 0 -142.5 -55t-60.5 -145l-12 -203h413v-242h-430l-14 -239h768v-283h-1073l33 522h-152z" />
<glyph unicode="&#xa5;" horiz-adv-x="1452" d="M59 1434h355l315 -488l318 488h354l-453 -670h250v-205h-324v-176h324v-205h-324v-178h-290v178h-351v205h351v176h-351v205h279z" />
<glyph unicode="&#xad;" d="M119 557v283h743v-283h-743z" />
<glyph unicode="&#xb7;" horiz-adv-x="724" d="M145 674q0 89 61.5 149t153.5 60q91 0 152 -60t61 -149q0 -91 -61 -151t-152 -60q-92 0 -153.5 60t-61.5 151z" />
<glyph unicode="&#xd7;" horiz-adv-x="1062" d="M90 453l246 245l-246 246l201 201l246 -248l239 240l199 -199l-240 -240l240 -239l-199 -199l-239 240l-246 -248z" />
<glyph unicode="&#xf7;" horiz-adv-x="1206" d="M119 557v283h968v-283h-968zM393 227q0 89 61.5 149t153.5 60q91 0 152 -60t61 -149q0 -91 -61 -151t-152 -60q-92 0 -153.5 60t-61.5 151zM393 1169q0 89 61.5 149t153.5 60q91 0 152 -60t61 -149q0 -91 -61 -151t-152 -60q-92 0 -153.5 60t-61.5 151z" />
<glyph unicode="&#x2000;" horiz-adv-x="850" />
<glyph unicode="&#x2001;" horiz-adv-x="1700" />
<glyph unicode="&#x2002;" horiz-adv-x="850" />
<glyph unicode="&#x2003;" horiz-adv-x="1700" />
<glyph unicode="&#x2004;" horiz-adv-x="566" />
<glyph unicode="&#x2005;" horiz-adv-x="425" />
<glyph unicode="&#x2006;" horiz-adv-x="283" />
<glyph unicode="&#x2007;" horiz-adv-x="283" />
<glyph unicode="&#x2008;" horiz-adv-x="212" />
<glyph unicode="&#x2009;" horiz-adv-x="340" />
<glyph unicode="&#x200a;" horiz-adv-x="94" />
<glyph unicode="&#x2010;" d="M119 557v283h743v-283h-743z" />
<glyph unicode="&#x2011;" d="M119 557v283h743v-283h-743z" />
<glyph unicode="&#x2012;" d="M119 557v283h743v-283h-743z" />
<glyph unicode="&#x2013;" horiz-adv-x="1206" d="M119 557v283h968v-283h-968z" />
<glyph unicode="&#x2014;" horiz-adv-x="1370" d="M119 557v283h1132v-283h-1132z" />
<glyph unicode="&#x2018;" horiz-adv-x="657" d="M106 969q0 109 61 219.5t216 265.5l154 -123q-122 -125 -172 -219q66 5 121 -53t55 -139q0 -85 -61.5 -145t-151.5 -60q-93 0 -157.5 65t-64.5 189z" />
<glyph unicode="&#x2019;" horiz-adv-x="657" d="M117 1249q0 85 61.5 145t151.5 60q92 0 156.5 -65t64.5 -189q0 -109 -61 -219.5t-216 -265.5l-153 123q122 125 172 219q-66 -5 -121 53t-55 139z" />
<glyph unicode="&#x201c;" horiz-adv-x="1189" d="M106 969q0 109 61 219.5t216 265.5l154 -123q-122 -125 -172 -219q66 5 121 -53t55 -139q0 -85 -61.5 -145t-151.5 -60q-93 0 -157.5 65t-64.5 189zM639 969q0 109 61 220t215 265l154 -123q-122 -125 -172 -219q66 5 121 -53t55 -139q0 -85 -61.5 -145t-151.5 -60 q-92 0 -156.5 65t-64.5 189z" />
<glyph unicode="&#x201d;" horiz-adv-x="1189" d="M117 1249q0 85 61.5 145t151.5 60q92 0 156.5 -65t64.5 -189q0 -109 -61 -219.5t-216 -265.5l-153 123q122 125 172 219q-66 -5 -121 53t-55 139zM649 1249q0 85 61.5 145t151.5 60q92 0 156.5 -65t64.5 -189q0 -109 -61 -220t-215 -265l-154 123q122 125 172 219 q-66 -5 -121 53t-55 139z" />
<glyph unicode="&#x2022;" horiz-adv-x="1087" d="M143 698q0 163 117.5 276t284.5 113t283 -113t116 -276t-116 -276t-283 -113t-284.5 113t-117.5 276z" />
<glyph unicode="&#x202f;" horiz-adv-x="340" />
<glyph unicode="&#x205f;" horiz-adv-x="425" />
<glyph unicode="&#x20ac;" horiz-adv-x="1681" d="M96 465v205h160q-2 14 -2 45q0 33 2 49h-160v205h201q79 218 273.5 351.5t443.5 133.5q175 0 325.5 -69t253.5 -191l-215 -215q-62 84 -155 131t-209 47q-120 0 -219 -49.5t-160 -138.5h473v-205h-549q-2 -16 -2 -49q0 -31 2 -45h457v-205h-383q61 -88 159.5 -138.5 t219.5 -50.5q128 0 231 56.5t166 150.5l229 -200q-107 -139 -269.5 -221t-358.5 -82q-251 0 -444 133.5t-269 351.5h-201z" />
<glyph unicode="&#x25fc;" horiz-adv-x="1075" d="M0 0v1075h1075v-1075h-1075z" />
</font>
</defs>
</svg>
