<?xml version="1.0" standalone="no"?>
<!DOCTYPE svg PUBLIC "-//W3C//DTD SVG 1.1//EN" "http://www.w3.org/Graphics/SVG/1.1/DTD/svg11.dtd" >
<svg xmlns="http://www.w3.org/2000/svg" xmlns:xlink="http://www.w3.org/1999/xlink" version="1.1">
<metadata></metadata>
<defs>
<font id="chromaticathin" horiz-adv-x="856" >
<font-face units-per-em="2048" ascent="1638" descent="-410" />
<missing-glyph horiz-adv-x="737" />
<glyph horiz-adv-x="0" />
<glyph horiz-adv-x="682" />
<glyph unicode=" "  horiz-adv-x="737" />
<glyph unicode="&#x09;" horiz-adv-x="737" />
<glyph unicode="&#xa0;" horiz-adv-x="737" />
<glyph unicode="!" horiz-adv-x="679" d="M260 57q0 34 21 55t55 21t55 -21t21 -55t-21 -55.5t-55 -21.5t-55 21.5t-21 55.5zM305 528v906h72v-906h-72z" />
<glyph unicode="&#x22;" horiz-adv-x="866" d="M262 1434h76l-2 -328h-72zM528 1434h76l-2 -328h-72z" />
<glyph unicode="#" horiz-adv-x="1814" d="M180 397l2 72h393l17 498h-393l2 71h393l14 396h72l-14 -396h501l15 396h71l-14 -396h395l-2 -71h-395l-16 -498h395l-2 -72h-395l-15 -397h-71l14 397h-502l-14 -397h-72l14 397h-393zM647 469h502l16 498h-501z" />
<glyph unicode="$" horiz-adv-x="1085" d="M119 166l53 49q59 -80 154 -122t198 -42q156 0 257.5 91.5t101.5 230.5q0 87 -46.5 153.5t-148.5 126.5l-258 154q-121 72 -177 146.5t-56 172.5q0 131 87 222.5t220 103.5v248h71v-248q180 -13 322 -164l-49 -51q-60 69 -139 107t-164 38q-118 0 -197.5 -72.5 t-79.5 -179.5q0 -77 48 -137.5t151 -122.5l252 -151q123 -73 179 -156t56 -190q0 -156 -105.5 -265t-273.5 -126v-248h-71v246q-115 5 -218 52.5t-167 133.5z" />
<glyph unicode="%" horiz-adv-x="1734" d="M131 1126q0 139 94 233.5t232 94.5q139 0 233 -94t94 -234q0 -139 -93.5 -232t-233.5 -93q-138 0 -232 93t-94 232zM203 1126q0 -109 72.5 -181.5t179.5 -72.5q110 0 183 72.5t73 181.5t-73 182.5t-183 73.5q-107 0 -179.5 -73.5t-72.5 -182.5zM311 0l1026 1434h86 l-1028 -1434h-84zM950 305q0 139 94 233.5t232 94.5q140 0 234 -94.5t94 -233.5t-94 -232t-234 -93q-138 0 -232 93t-94 232zM1022 305q0 -109 72.5 -181.5t179.5 -72.5q110 0 183 72.5t73 181.5t-73 182.5t-183 73.5q-107 0 -179.5 -73.5t-72.5 -182.5z" />
<glyph unicode="&#x26;" horiz-adv-x="1417" d="M150 319q0 109 54 190t158 148l103 68l-41 43q-178 189 -178 365q0 138 91 229.5t228 91.5t228.5 -90.5t91.5 -226.5q0 -225 -267 -398l-45 -28l373 -396l299 367l53 -49l-303 -371l246 -262h-90l-199 211l-2 -2q-189 -229 -434 -229q-162 0 -264 92.5t-102 246.5z M221 309q0 -110 82.5 -184t206.5 -74q100 0 202.5 52t186.5 155l4 4l-389 410l-113 -72q-77 -50 -128.5 -126.5t-51.5 -164.5zM317 1133q0 -75 38.5 -153t127.5 -173l41 -45l54 35q119 76 177 153t58 176q0 109 -72.5 182.5t-179.5 73.5q-104 0 -174 -71t-70 -178z" />
<glyph unicode="'" horiz-adv-x="600" d="M262 1434h76l-2 -328h-72z" />
<glyph unicode="(" horiz-adv-x="860" d="M160 717q0 275 142.5 481t402.5 307l24 -67q-237 -92 -367.5 -281t-130.5 -440t130.5 -440t367.5 -281l-24 -68q-260 101 -402.5 307.5t-142.5 481.5z" />
<glyph unicode=")" horiz-adv-x="860" d="M131 -4q237 92 367.5 281t130.5 440t-130.5 440t-367.5 281l25 67q260 -101 402 -307t142 -481t-142 -481.5t-402 -307.5z" />
<glyph unicode="*" horiz-adv-x="1097" d="M178 1137l23 69l313 -104l-2 332h74l-2 -332l313 104l23 -69l-314 -101l197 -266l-60 -43l-194 270l-195 -270l-59 43l197 266z" />
<glyph unicode="+" horiz-adv-x="1019" d="M141 569v72h340v336h72v-336h326v-72h-326v-329h-72v329h-340z" />
<glyph unicode="," horiz-adv-x="626" d="M229 -193q86 97 105 191q-29 -14 -57.5 4.5t-28.5 56.5q0 31 21.5 52.5t54.5 21.5q36 0 60 -25t24 -73q0 -116 -134 -264z" />
<glyph unicode="-" d="M141 569v72h574v-72h-574z" />
<glyph unicode="." horiz-adv-x="587" d="M217 57q0 34 21 55t55 21t55 -21t21 -55t-21 -55.5t-55 -21.5t-55 21.5t-21 55.5z" />
<glyph unicode="/" horiz-adv-x="851" d="M74 0l626 1434h78l-626 -1434h-78z" />
<glyph unicode="0" horiz-adv-x="1357" d="M176 717q0 340 135 538.5t367 198.5t368 -198.5t136 -538.5t-136 -538.5t-368 -198.5t-367 198.5t-135 538.5zM248 717q0 -307 116 -486.5t314 -179.5q199 0 315.5 179t116.5 487q0 307 -116 486t-316 179q-198 0 -314 -179t-116 -486z" />
<glyph unicode="1" horiz-adv-x="817" d="M115 1362v72h448v-1434h-71v1362h-377z" />
<glyph unicode="2" horiz-adv-x="1167" d="M133 0l631 725q156 179 156 344q0 139 -90 226t-230 87q-158 0 -252 -108.5t-92 -276.5l-72 4q0 201 115 327t301 126q172 0 281.5 -107.5t109.5 -277.5q0 -102 -44 -196t-132 -195l-524 -604h713l2 -74h-873z" />
<glyph unicode="3" horiz-adv-x="1200" d="M154 428h71q-1 -172 97 -274.5t264 -102.5q162 0 265 95t103 241q0 143 -100.5 233.5t-265.5 90.5h-35v71h35q152 0 243 81.5t91 211.5q0 134 -93.5 220.5t-240.5 86.5q-148 0 -240.5 -91t-91.5 -253h-72q0 191 110.5 303.5t291.5 112.5q179 0 293 -106.5t114 -270.5 q0 -118 -63.5 -203t-181.5 -126q132 -42 205 -135t73 -226q0 -176 -124 -291.5t-316 -115.5q-195 0 -313.5 122t-118.5 326z" />
<glyph unicode="4" horiz-adv-x="1316" d="M131 582l244 852h69l-217 -781h463v484h72v-484h442v-71h-442v-582h-72v582h-559z" />
<glyph unicode="5" horiz-adv-x="1241" d="M172 430l72 8q0 -171 107.5 -279t275.5 -108q170 0 280.5 110.5t110.5 276.5q0 170 -115 277.5t-297 107.5q-188 0 -317 -114l-58 45l43 680h721v-72h-653l-37 -551q134 84 299 84q215 0 350.5 -127.5t135.5 -327.5q0 -198 -132.5 -329t-334.5 -131q-197 0 -323.5 125.5 t-127.5 324.5z" />
<glyph unicode="6" horiz-adv-x="1187" d="M145 416q0 82 30 168t97 202l381 656l64 -31l-342 -592q87 62 223 62q191 0 320 -129.5t129 -321.5q0 -193 -129.5 -321.5t-323.5 -128.5q-192 0 -320.5 125.5t-128.5 310.5zM217 422q0 -161 106 -266t267 -105q166 0 275.5 108t109.5 271t-108 271t-269 108 q-163 0 -272 -111.5t-109 -275.5z" />
<glyph unicode="7" horiz-adv-x="1138" d="M115 1362v72h899l-518 -1434h-76l491 1362h-796z" />
<glyph unicode="8" horiz-adv-x="1257" d="M168 387q0 128 75 226t201 141q-107 43 -170 131.5t-63 199.5q0 158 119 263.5t299 105.5t299 -105.5t119 -263.5q0 -111 -63.5 -199.5t-170.5 -131.5q126 -43 201.5 -141.5t75.5 -225.5q0 -172 -132 -289.5t-329 -117.5t-329 117.5t-132 289.5zM240 385 q0 -143 111 -238.5t278 -95.5t278 95.5t111 238.5q0 141 -111 235.5t-278 94.5t-278 -94.5t-111 -235.5zM283 1083q0 -128 98.5 -212.5t247.5 -84.5t247.5 84.5t98.5 212.5t-98.5 213.5t-247.5 85.5t-247.5 -85.5t-98.5 -213.5z" />
<glyph unicode="9" horiz-adv-x="1187" d="M141 1004q0 193 129.5 321.5t323.5 128.5q191 0 319.5 -125.5t128.5 -310.5q0 -82 -30 -168.5t-97 -202.5l-380 -655l-64 31l342 591q-86 -61 -223 -61q-191 0 -320 129.5t-129 321.5zM213 1004q0 -163 108 -271t269 -108q163 0 272 111.5t109 275.5q0 161 -105.5 265.5 t-267.5 104.5q-166 0 -275.5 -107.5t-109.5 -270.5z" />
<glyph unicode=":" horiz-adv-x="655" d="M250 57q0 34 21 55t55 21t54.5 -21t20.5 -55t-20.5 -55.5t-54.5 -21.5t-55 21.5t-21 55.5zM250 672q0 34 21 55t55 21t54.5 -21t20.5 -55t-21 -56t-54 -22q-34 0 -55 22t-21 56z" />
<glyph unicode=";" horiz-adv-x="677" d="M254 -193q85 95 104 191q-29 -14 -57.5 4.5t-28.5 56.5q0 31 21.5 52.5t54.5 21.5q36 0 60 -25t24 -73q0 -117 -133 -264zM264 672q0 34 21 55t55 21t55 -21t21 -55t-21 -56t-55 -22t-55 22t-21 56z" />
<glyph unicode="&#x3c;" horiz-adv-x="1042" d="M131 567v80l737 328v-80l-659 -287l659 -289v-79z" />
<glyph unicode="=" horiz-adv-x="1019" d="M141 426v72h738v-72h-738zM141 713v71h738v-71h-738z" />
<glyph unicode="&#x3e;" horiz-adv-x="1042" d="M174 240v79l660 289l-660 287v80l737 -328v-80z" />
<glyph unicode="?" horiz-adv-x="940" d="M154 1317q50 64 130 100.5t173 36.5q136 0 222.5 -77t86.5 -199q0 -114 -78.5 -202t-218.5 -126v-322h-72v379q132 25 214.5 98.5t82.5 172.5q0 89 -66.5 146.5t-170.5 57.5q-75 0 -141 -31t-107 -85zM356 57q0 34 21 55t55 21t55 -21t21 -55t-21 -55.5t-55 -21.5 t-55 21.5t-21 55.5z" />
<glyph unicode="@" horiz-adv-x="1814" d="M137 610q0 165 59.5 310t162.5 249t247.5 164t308.5 60q161 0 303 -58.5t243 -159.5t159.5 -244t58.5 -306q0 -185 -72.5 -297.5t-201.5 -112.5q-72 0 -127 35.5t-78 97.5q-52 -73 -131.5 -112t-175.5 -39q-172 0 -286.5 117t-114.5 290q0 172 114.5 287t286.5 115 q183 0 293 -136v115h71v-539q0 -73 42 -116t108 -43q94 0 147.5 91.5t53.5 244.5q0 147 -53 277t-144.5 222t-221 145.5t-276.5 53.5q-198 0 -359 -92.5t-253 -255.5t-92 -363q0 -154 53.5 -288t146 -229.5t223.5 -150.5t281 -55q251 0 498 174l39 -61 q-132 -93 -260.5 -138.5t-271.5 -45.5q-167 0 -312 60t-248 165t-162 252.5t-59 316.5zM563 604q0 -144 96 -240t238 -96q94 0 171.5 46t117.5 124v328q-42 80 -119.5 124t-171.5 44q-142 0 -237 -94.5t-95 -235.5z" />
<glyph unicode="A" horiz-adv-x="1515" d="M96 0l629 1446h66l628 -1446h-78l-221 510h-725l-221 -510h-78zM426 582h664l-332 761z" />
<glyph unicode="B" horiz-adv-x="1263" d="M231 0v1434h437q179 0 283 -97t104 -262q0 -118 -54 -201.5t-153 -123.5q129 -34 200.5 -129t71.5 -236q0 -178 -113 -281.5t-305 -103.5h-471zM303 72h399q157 0 252 86.5t95 230.5t-95 231t-252 87h-399v-635zM303 778h365q145 0 230 80t85 215q0 132 -85 210.5 t-230 78.5h-365v-584z" />
<glyph unicode="C" horiz-adv-x="1540" d="M135 717q0 206 95 375t262 265.5t372 96.5q162 0 302.5 -60.5t242.5 -168.5l-45 -58q-90 102 -219.5 158.5t-280.5 56.5q-139 0 -261.5 -51t-209 -139t-136.5 -211.5t-50 -263.5q0 -187 85.5 -339.5t236 -239.5t335.5 -87q161 0 297 65.5t225 182.5l54 -51 q-101 -126 -250 -197t-324 -71q-205 0 -372.5 96.5t-263 265.5t-95.5 375z" />
<glyph unicode="D" horiz-adv-x="1495" d="M231 0v1434h426q148 0 278.5 -55t223.5 -149.5t147 -228t54 -284.5t-54 -284.5t-147 -228t-223.5 -149.5t-278.5 -55h-426zM303 72h367q129 0 244 49.5t197 135t129.5 205.5t47.5 255t-47.5 255t-129.5 205.5t-197 135t-244 49.5h-367v-1290z" />
<glyph unicode="E" horiz-adv-x="1085" d="M231 0v1434h713v-72h-641v-574h623v-71h-623v-645h641v-72h-713z" />
<glyph unicode="F" horiz-adv-x="1056" d="M231 0v1434h713v-72h-641v-600h625v-72h-625v-690h-72z" />
<glyph unicode="G" horiz-adv-x="1593" d="M135 717q0 206 95 375t262 265.5t372 96.5q162 0 302.5 -60.5t242.5 -168.5l-45 -58q-90 102 -219.5 158.5t-280.5 56.5q-139 0 -261.5 -51t-209 -139t-136.5 -211.5t-50 -263.5q0 -187 85.5 -339.5t236 -239.5t335.5 -87q153 0 284 60.5t220 167.5v438h-414v71h486v-540 q-101 -126 -250 -197t-324 -71q-205 0 -372.5 96.5t-263 265.5t-95.5 375z" />
<glyph unicode="H" horiz-adv-x="1507" d="M231 0v1434h72v-648h901v648h72v-1434h-72v715h-901v-715h-72z" />
<glyph unicode="I" horiz-adv-x="534" d="M231 0v1434h72v-1434h-72z" />
<glyph unicode="J" horiz-adv-x="1177" d="M102 434l72 6q3 -172 104 -280.5t259 -108.5q162 0 263 109.5t101 283.5v990h72v-990q0 -207 -121 -335.5t-313 -128.5t-313 126.5t-124 327.5z" />
<glyph unicode="K" horiz-adv-x="1232" d="M231 0v1434h72v-699l690 699h103l-521 -527l555 -907h-83l-525 854l-219 -221v-633h-72z" />
<glyph unicode="L" horiz-adv-x="1073" d="M231 0v1434h72v-1362h680v-72h-752z" />
<glyph unicode="M" horiz-adv-x="1734" d="M231 0v1434h84l553 -1227l551 1227h84v-1434h-71v1290l-525 -1167h-80l-524 1167v-1290h-72z" />
<glyph unicode="N" horiz-adv-x="1533" d="M231 0v1434h62l938 -1301v1301h72v-1434h-64l-936 1296v-1296h-72z" />
<glyph unicode="O" horiz-adv-x="1742" d="M137 717q0 156 56 293t153.5 234.5t234 153.5t291.5 56q207 0 375.5 -95.5t264.5 -264.5t96 -377t-96 -377t-264.5 -264.5t-375.5 -95.5q-155 0 -291.5 56t-234 153.5t-153.5 234.5t-56 293zM209 717q0 -141 50.5 -264.5t138.5 -211.5t211 -139t263 -51q187 0 339 86.5 t238.5 239t86.5 340.5q0 141 -51 264.5t-138.5 211.5t-211 138.5t-263.5 50.5t-263 -50.5t-211 -138.5t-138.5 -211.5t-50.5 -264.5z" />
<glyph unicode="P" horiz-adv-x="1228" d="M231 0v1434h457q197 0 310.5 -108.5t113.5 -295.5q0 -189 -113.5 -297t-310.5 -108h-385v-625h-72zM303 696h385q168 0 260 86.5t92 247.5q0 159 -92 245.5t-260 86.5h-385v-666z" />
<glyph unicode="Q" horiz-adv-x="1740" d="M135 717q0 156 56 293t153.5 234.5t234 153.5t291.5 56q207 0 375.5 -95.5t264.5 -264.5t96 -377q0 -287 -176 -489.5t-451 -239.5l59 -326l-71 -12l-60 330h-37q-155 0 -291.5 56t-234 153.5t-153.5 234.5t-56 293zM207 717q0 -141 50.5 -264.5t138.5 -211.5t211 -139 t263 -51q187 0 339 86.5t238.5 239t86.5 340.5q0 141 -51 264.5t-138.5 211.5t-211 138.5t-263.5 50.5t-263 -50.5t-211 -138.5t-138.5 -211.5t-50.5 -264.5z" />
<glyph unicode="R" horiz-adv-x="1277" d="M231 0v1434h457q197 0 310.5 -108.5t113.5 -295.5q0 -168 -92 -273.5t-254 -127.5l381 -629h-84l-379 625h-381v-625h-72zM303 696h385q168 0 260 86.5t92 247.5q0 159 -92 245.5t-260 86.5h-385v-666z" />
<glyph unicode="S" horiz-adv-x="1060" d="M104 166l54 49q59 -80 154 -122t198 -42q156 0 257 91.5t101 230.5q0 87 -46 153.5t-148 126.5l-258 154q-121 72 -177.5 146.5t-56.5 172.5q0 141 99 234.5t247 93.5q95 0 187.5 -42.5t167.5 -123.5l-49 -51q-60 69 -139.5 107t-164.5 38q-118 0 -197 -72.5t-79 -179.5 q0 -77 48 -137.5t151 -122.5l252 -151q123 -73 179 -156t56 -190q0 -169 -122 -281t-310 -112q-119 0 -228 48t-176 138z" />
<glyph unicode="T" horiz-adv-x="1087" d="M90 1362v72h907v-72h-417v-1362h-72v1362h-418z" />
<glyph unicode="U" horiz-adv-x="1507" d="M199 539v895h71v-893q0 -225 131 -357.5t353 -132.5t352.5 132.5t130.5 357.5v893h72v-895q0 -259 -149 -409t-408 -150q-258 0 -405.5 149t-147.5 410z" />
<glyph unicode="V" horiz-adv-x="1380" d="M98 1434h78l514 -1293l514 1293h78l-575 -1434h-35z" />
<glyph unicode="W" horiz-adv-x="1853" d="M113 1434h73l332 -1284l385 1200h51l379 -1198l336 1282h72l-373 -1434h-55l-385 1188l-387 -1188h-56z" />
<glyph unicode="X" horiz-adv-x="1255" d="M113 0l471 723l-465 711h84l424 -646l424 646h84l-465 -711l473 -723h-84l-432 655l-430 -655h-84z" />
<glyph unicode="Y" horiz-adv-x="1191" d="M88 1434h86l422 -643l422 643h86l-471 -717v-717h-72v717z" />
<glyph unicode="Z" horiz-adv-x="1083" d="M117 0l700 1360h-686v74h811l-700 -1360h731v-74h-856z" />
<glyph unicode="[" horiz-adv-x="866" d="M231 -72v1577h498v-71h-426v-1434h426v-72h-498z" />
<glyph unicode="\" horiz-adv-x="851" d="M74 1434h78l626 -1434h-78z" />
<glyph unicode="]" horiz-adv-x="866" d="M137 0h426v1434h-426v71h498v-1577h-498v72z" />
<glyph unicode="_" horiz-adv-x="1402" d="M233 -168h936v-72h-936v72z" />
<glyph unicode="a" horiz-adv-x="1259" d="M119 483q0 213 141.5 355.5t353.5 142.5q235 0 375 -170v150h72v-961h-72v152q-139 -172 -371 -172q-214 0 -356.5 144t-142.5 359zM190 483q0 -184 123 -308t305 -124q121 0 218.5 58.5t152.5 158.5v426q-56 103 -154.5 159t-218.5 56q-183 0 -304.5 -121.5 t-121.5 -304.5z" />
<glyph unicode="b" horiz-adv-x="1275" d="M215 0v1536h72v-725q140 170 375 170q212 0 353.5 -142.5t141.5 -355.5q0 -215 -143 -359t-357 -144q-231 0 -370 172v-152h-72zM287 268q55 -100 152 -158.5t218 -58.5q182 0 305 124t123 308q0 183 -121.5 304.5t-304.5 121.5q-120 0 -218 -56t-154 -159v-426z" />
<glyph unicode="c" horiz-adv-x="1114" d="M119 481q0 214 145 357t363 143q111 0 208 -42t166 -116l-47 -55q-125 141 -329 141q-186 0 -310.5 -122.5t-124.5 -305.5q0 -185 123.5 -307.5t309.5 -122.5q109 0 200 43.5t150 118.5l51 -47q-69 -87 -172 -136.5t-227 -49.5q-142 0 -258 65.5t-182 180t-66 255.5z" />
<glyph unicode="d" horiz-adv-x="1275" d="M119 483q0 213 141.5 355.5t353.5 142.5q235 0 375 -170v725h72v-1536h-72v152q-139 -172 -371 -172q-214 0 -356.5 144t-142.5 359zM190 483q0 -184 123 -308t305 -124q121 0 218.5 58.5t152.5 158.5v426q-56 103 -154.5 159t-218.5 56q-183 0 -304.5 -121.5 t-121.5 -304.5z" />
<glyph unicode="e" horiz-adv-x="1189" d="M119 481q0 213 142.5 356.5t352.5 143.5q203 0 333 -139t130 -361h-887q2 -183 126.5 -306.5t312.5 -123.5q102 0 190 42t178 132l54 -57q-196 -188 -422 -188q-220 0 -365 143t-145 358zM197 553h804q-20 160 -126.5 258t-262.5 98q-159 0 -275.5 -100.5t-139.5 -255.5z " />
<glyph unicode="f" horiz-adv-x="768" d="M82 889v72h182v280q0 140 78.5 227.5t206.5 87.5q78 0 143 -36l-33 -64q-49 29 -114 29q-91 0 -150 -68t-59 -176v-280h356v-72h-356v-889h-72v889h-182z" />
<glyph unicode="g" horiz-adv-x="1282" d="M135 489q0 211 141.5 351.5t356.5 140.5q112 0 204.5 -40.5t157.5 -109.5v130h72v-1072q0 -194 -127.5 -318t-318.5 -124q-184 0 -312 114t-147 287l71 23q19 -150 126 -251t264 -101q160 0 266 104t106 268v256q-145 -151 -360 -151t-357.5 141t-142.5 352zM207 492 q0 -181 123 -302.5t305 -121.5q115 0 208.5 51.5t151.5 142.5v453q-58 93 -154 143.5t-208 50.5q-183 0 -304.5 -119t-121.5 -298z" />
<glyph unicode="h" horiz-adv-x="1165" d="M215 0v1536h72v-721q67 82 161.5 124t200.5 42q158 0 250 -95.5t92 -267.5v-618h-71v608q0 147 -72 224t-201 77q-105 0 -204 -52t-156 -146v-711h-72z" />
<glyph unicode="i" horiz-adv-x="493" d="M166 1376q0 34 21 55t55 21t54.5 -21t20.5 -55t-21 -56t-54 -22q-34 0 -55 22t-21 56zM211 0v961h72v-961h-72z" />
<glyph unicode="j" horiz-adv-x="503" d="M-139 -395l33 63q47 -28 114 -28q91 0 150 67.5t59 175.5v1078h72v-1078q0 -140 -78.5 -227.5t-206.5 -87.5q-76 0 -143 37zM170 1376q0 34 21 55t55 21t55 -21t21 -55t-21 -56t-55 -22t-55 22t-21 56z" />
<glyph unicode="k" horiz-adv-x="1067" d="M215 0v1536h72v-1124l549 549h96l-338 -338l385 -623h-84l-354 571l-254 -254v-317h-72z" />
<glyph unicode="l" horiz-adv-x="501" d="M215 0v1536h72v-1536h-72z" />
<glyph unicode="m" horiz-adv-x="1667" d="M199 0v961h71v-136q61 73 144.5 114.5t173.5 41.5q94 0 161 -46t101 -134q60 85 150 132.5t188 47.5q140 0 221.5 -96t81.5 -267v-618h-72v596q0 149 -61.5 231t-173.5 82q-94 0 -177.5 -55.5t-132.5 -151.5q7 -47 7 -84v-618h-72v596q0 149 -61.5 231t-174.5 82 q-91 0 -172.5 -52t-130.5 -144v-713h-71z" />
<glyph unicode="n" horiz-adv-x="1148" d="M199 0v961h71v-146q67 82 162 124t201 42q158 0 250 -95.5t92 -267.5v-618h-72v608q0 147 -71.5 224t-200.5 77q-105 0 -204.5 -52t-156.5 -146v-711h-71z" />
<glyph unicode="o" horiz-adv-x="1230" d="M119 483q0 214 142 356t357 142q211 0 352.5 -142.5t141.5 -355.5q0 -215 -141.5 -359t-352.5 -144q-215 0 -357 143.5t-142 359.5zM190 483q0 -185 122 -308.5t306 -123.5q181 0 302.5 123.5t121.5 308.5q0 183 -121 304.5t-303 121.5q-184 0 -306 -121.5t-122 -304.5z " />
<glyph unicode="p" horiz-adv-x="1275" d="M215 -532v1493h72v-150q140 170 375 170q212 0 353.5 -142.5t141.5 -355.5q0 -215 -143 -359t-357 -144q-231 0 -370 172v-684h-72zM287 268q55 -100 152 -158.5t218 -58.5q182 0 305 124t123 308q0 183 -121.5 304.5t-304.5 121.5q-120 0 -218 -56t-154 -159v-426z" />
<glyph unicode="q" horiz-adv-x="1275" d="M117 483q0 213 141.5 355.5t353.5 142.5q235 0 375 -170v150h72v-1493h-72v684q-139 -172 -371 -172q-214 0 -356.5 144t-142.5 359zM188 483q0 -184 123 -308t305 -124q121 0 218.5 58.5t152.5 158.5v426q-56 103 -154.5 159t-218.5 56q-183 0 -304.5 -121.5 t-121.5 -304.5z" />
<glyph unicode="r" horiz-adv-x="739" d="M199 0v961h71v-216q60 107 167.5 171.5t224.5 64.5v-84q-130 0 -233.5 -72t-158.5 -196v-629h-71z" />
<glyph unicode="s" horiz-adv-x="813" d="M96 115l56 47q43 -52 106.5 -81.5t134.5 -29.5q102 0 170 58t68 145q0 51 -25 88t-80 68l-207 116q-88 49 -127.5 103t-39.5 123q0 98 72.5 163.5t181.5 65.5q147 0 256 -115l-52 -51q-88 94 -204 94q-78 0 -130.5 -45t-52.5 -112q0 -47 29.5 -85t93.5 -73l209 -117 q77 -43 112 -96.5t35 -126.5q0 -118 -88.5 -196t-220.5 -78q-90 0 -167 35t-130 100z" />
<glyph unicode="t" horiz-adv-x="983" d="M76 889v72h219v358h72v-358h514v-72h-514v-586q0 -123 58 -187.5t157 -64.5q68 0 123 30t120 93l56 -53q-81 -76 -149.5 -108.5t-145.5 -32.5q-135 0 -213 84t-78 241v584h-219z" />
<glyph unicode="u" horiz-adv-x="1148" d="M174 342v619h72v-609q0 -147 71.5 -224t200.5 -77q105 0 204.5 52.5t156.5 146.5v711h71v-961h-71v145q-67 -82 -162 -123.5t-201 -41.5q-158 0 -250 95.5t-92 266.5z" />
<glyph unicode="v" horiz-adv-x="1093" d="M84 961h78l385 -861l385 861h78l-428 -961h-68z" />
<glyph unicode="w" horiz-adv-x="1529" d="M100 961h86l242 -863l303 842h76l303 -842l246 863h74l-275 -961h-90l-299 819l-299 -819h-92z" />
<glyph unicode="x" horiz-adv-x="991" d="M92 0l365 506l-328 455h90l281 -396l280 396h84l-321 -457l354 -504h-86l-311 440l-316 -440h-92z" />
<glyph unicode="y" horiz-adv-x="1052" d="M80 961h90l356 -701l367 701h80l-780 -1493h-80l370 710z" />
<glyph unicode="z" horiz-adv-x="978" d="M109 0l608 889h-604v72h739l-608 -889h635v-72h-770z" />
<glyph unicode="{" horiz-adv-x="878" d="M156 643v148q107 15 140.5 65t4.5 150l-45 155q-43 149 31.5 246.5t238.5 97.5h215v-71h-217q-121 0 -175 -70.5t-21 -179.5l51 -170q30 -100 -11.5 -177t-140.5 -92v-53q94 -19 136 -94t12 -182l-47 -164q-31 -110 22.5 -181t173.5 -71h217v-72h-215q-162 0 -236.5 98 t-31.5 250l43 152q28 98 -5.5 146.5t-139.5 68.5z" />
<glyph unicode="|" horiz-adv-x="534" d="M231 -410v1844h72v-1844h-72z" />
<glyph unicode="}" horiz-adv-x="878" d="M137 0h217q120 0 174 71t23 181l-47 164q-30 107 11.5 182t135.5 94v53q-99 15 -140 91.5t-11 177.5l51 170q33 109 -21 179.5t-176 70.5h-217v71h215q164 0 239 -97.5t32 -246.5l-45 -155q-29 -100 4.5 -150t140.5 -65v-148q-106 -20 -139.5 -68.5t-5.5 -146.5l43 -152 q43 -152 -32 -250t-237 -98h-215v72z" />
<glyph unicode="&#xa2;" horiz-adv-x="1171" d="M143 481q0 203 133 343.5t336 154.5v248h72v-246q101 -6 189.5 -47.5t152.5 -110.5l-47 -55q-125 141 -330 141q-186 0 -310 -122.5t-124 -305.5q0 -185 123 -307.5t309 -122.5q109 0 200 43.5t150 118.5l52 -47q-65 -81 -159 -129.5t-206 -54.5v-248h-72v248 q-203 12 -336 153.5t-133 345.5z" />
<glyph unicode="&#xa3;" horiz-adv-x="1302" d="M139 614v72h156l43 358q22 186 129.5 298t275.5 112q174 0 286.5 -117.5t115.5 -304.5l-72 -6q-3 158 -95 257t-237 99q-140 0 -225.5 -93t-105.5 -245l-43 -358h559v-72h-570l-65 -542h864v-72h-942l74 614h-148z" />
<glyph unicode="&#xa5;" horiz-adv-x="1273" d="M133 1434h86l422 -643l422 643h86l-451 -686h338v-72h-358v-236h358v-71h-358v-369h-72v369h-389v71h389v236h-389v72h369z" />
<glyph unicode="&#xad;" d="M141 569v72h574v-72h-574z" />
<glyph unicode="&#xb7;" horiz-adv-x="583" d="M213 610q0 34 21 55t55 21t55 -21t21 -55t-21 -56t-55 -22t-55 22t-21 56z" />
<glyph unicode="&#xd7;" horiz-adv-x="892" d="M160 365l241 241l-241 240l51 51l242 -240l229 230l51 -51l-229 -230l229 -231l-51 -51l-229 231l-242 -242z" />
<glyph unicode="&#xf7;" horiz-adv-x="1019" d="M141 569v72h738v-72h-738zM438 319q0 34 21 55t55 21t55 -21t21 -55t-21 -55.5t-55 -21.5t-55 21.5t-21 55.5zM438 893q0 34 21 55t55 21t55 -21t21 -55t-21 -56t-55 -22t-55 22t-21 56z" />
<glyph unicode="&#x2000;" horiz-adv-x="850" />
<glyph unicode="&#x2001;" horiz-adv-x="1700" />
<glyph unicode="&#x2002;" horiz-adv-x="850" />
<glyph unicode="&#x2003;" horiz-adv-x="1700" />
<glyph unicode="&#x2004;" horiz-adv-x="566" />
<glyph unicode="&#x2005;" horiz-adv-x="425" />
<glyph unicode="&#x2006;" horiz-adv-x="283" />
<glyph unicode="&#x2007;" horiz-adv-x="283" />
<glyph unicode="&#x2008;" horiz-adv-x="212" />
<glyph unicode="&#x2009;" horiz-adv-x="340" />
<glyph unicode="&#x200a;" horiz-adv-x="94" />
<glyph unicode="&#x2010;" d="M141 569v72h574v-72h-574z" />
<glyph unicode="&#x2011;" d="M141 569v72h574v-72h-574z" />
<glyph unicode="&#x2012;" d="M141 569v72h574v-72h-574z" />
<glyph unicode="&#x2013;" horiz-adv-x="1019" d="M141 569v72h738v-72h-738z" />
<glyph unicode="&#x2014;" horiz-adv-x="1349" d="M141 569v72h1067v-72h-1067z" />
<glyph unicode="&#x2018;" horiz-adv-x="532" d="M172 1190q0 117 133 264l45 -37q-85 -95 -104 -190q29 14 57.5 -5t28.5 -57q0 -31 -21.5 -52t-54.5 -21q-36 0 -60 25t-24 73z" />
<glyph unicode="&#x2019;" horiz-adv-x="532" d="M182 1128q86 97 105 191q-29 -14 -57.5 4.5t-28.5 56.5q0 31 21 52.5t54 21.5q36 0 60 -25t24 -73q0 -117 -133 -264z" />
<glyph unicode="&#x201c;" horiz-adv-x="778" d="M172 1190q0 117 133 264l45 -37q-85 -95 -104 -190q29 14 57.5 -5t28.5 -57q0 -31 -21.5 -52t-54.5 -21q-36 0 -60 25t-24 73zM418 1190q0 117 133 264l45 -37q-85 -95 -104 -190q29 14 57.5 -5t28.5 -57q0 -31 -21.5 -52t-54.5 -21q-36 0 -60 25t-24 73z" />
<glyph unicode="&#x201d;" horiz-adv-x="778" d="M182 1128q86 97 105 191q-29 -14 -57.5 4.5t-28.5 56.5q0 31 21 52.5t54 21.5q36 0 60 -25t24 -73q0 -117 -133 -264zM428 1128q85 95 104 191q-29 -14 -57.5 4.5t-28.5 56.5q0 31 21.5 52.5t54.5 21.5q36 0 60 -25t24 -73q0 -117 -133 -264z" />
<glyph unicode="&#x2022;" horiz-adv-x="1028" d="M211 606q0 123 89.5 212t213.5 89t213.5 -89t89.5 -212q0 -124 -89.5 -213.5t-213.5 -89.5t-213.5 89.5t-89.5 213.5z" />
<glyph unicode="&#x202f;" horiz-adv-x="340" />
<glyph unicode="&#x205f;" horiz-adv-x="425" />
<glyph unicode="&#x20ac;" horiz-adv-x="1658" d="M135 543v71h125q-6 50 -6 103t6 102h-125v72h137q56 250 251 406.5t460 156.5q162 0 302.5 -60.5t242.5 -168.5l-45 -58q-90 102 -219.5 158.5t-280.5 56.5q-235 0 -408.5 -136t-228.5 -355h813v-72h-827q-6 -49 -6 -102t6 -103h704v-71h-690q55 -219 229 -355.5 t408 -136.5q161 0 297 65.5t225 182.5l54 -51q-101 -126 -250 -197t-324 -71q-265 0 -461 156.5t-252 406.5h-137z" />
<glyph unicode="&#x25fc;" horiz-adv-x="962" d="M0 0v963h963v-963h-963z" />
</font>
</defs>
</svg>
