<svg xmlns="http://www.w3.org/2000/svg" width="20" height="25" viewBox="0 0 20 25">
    <g fill="#FFF" fill-rule="evenodd">
        <rect width="4.545" height="15.054" rx="1.154"/>
        <path d="M10.303 12.458c0 1.558 1.172 2.822 2.617 2.822h4.103c.637 0 1.154-.516 1.154-1.154V10.02a.385.385 0 0 0-.385-.384H12.92c-1.445 0-2.617 1.264-2.617 2.823zM19.73 20.7c0 2.12-1.747 3.839-3.902 3.839h-5.14a.385.385 0 0 1-.385-.385v-5.537c0-.637.517-1.154 1.154-1.154h4.371c2.155 0 3.902 1.117 3.902 3.237z"/>
        <ellipse cx="9.394" cy="3.312" rx="3.333" ry="3.312"/>
    </g>
</svg>
